<svg width="45" height="45" viewBox="0 0 45 45" fill="none" xmlns="http://www.w3.org/2000/svg">
<path d="M22.5 1.80005C33.9328 1.80005 43.2001 11.0673 43.2001 22.5C43.2001 33.9328 33.9328 43.2001 22.5 43.2001C11.0673 43.2001 1.80005 33.9328 1.80005 22.5C1.80005 11.0673 11.0673 1.80005 22.5 1.80005ZM29.6406 30.9375C30.0213 29.7694 31.8051 18.1269 32.0257 15.8328C32.0922 15.138 31.8727 14.6763 31.4425 14.4702C30.9223 14.22 30.1518 14.3451 29.2581 14.6673C28.0323 15.1093 12.3615 21.7629 11.4561 22.1481C10.5975 22.5126 9.78575 22.9104 9.78575 23.4865C9.78575 23.8915 10.026 24.1192 10.6884 24.3559C11.3778 24.6015 13.1139 25.128 14.139 25.4106C15.1263 25.6833 16.2505 25.4466 16.8805 25.0552C17.5483 24.6403 25.2549 19.4832 25.8085 19.0315C26.361 18.5796 26.802 19.1583 26.3503 19.611C25.8984 20.0629 20.6082 25.1973 19.9107 25.9083C19.0638 26.7715 19.6651 27.666 20.233 28.0243C20.8819 28.4328 25.5483 31.563 26.2512 32.0652C26.9541 32.5674 27.667 32.7951 28.3195 32.7951C28.9719 32.7951 29.3157 31.9356 29.6406 30.9375Z" fill="#24475B"/>
</svg>
